HIERARCHY
ROOT Hips
{
    OFFSET   0.000000   0.000000   0.000000
    CHANNELS 6 Xposition Yposition Zposition Zrotation Xrotation Yrotation
    JOINT Chest
    {
        OFFSET   0.000000   8.007230   0.000000
        CHANNELS 3 Zrotation Xrotation Yrotation
        JOINT Chest2
        {
            OFFSET   0.000000  22.077100   0.000000
            CHANNELS 3 Zrotation Xrotation Yrotation
            JOINT Neck
            {
                OFFSET   0.000000  23.255100   0.000000
                CHANNELS 3 Zrotation Xrotation Yrotation
                JOINT Head
                {
                    OFFSET   0.000000  14.370100   1.956600
                    CHANNELS 3 Zrotation Xrotation Yrotation
                    End Site
                    {
                        OFFSET   0.000000  19.566000   0.000000
                    }
                }
            }
            JOINT LeftCollar
            {
                OFFSET   3.911900  19.017000  -0.467063
                CHANNELS 3 Zrotation Xrotation Yrotation
                JOINT LeftShoulder
                {
                    OFFSET  10.383700   0.000000   0.000000
                    CHANNELS 3 Zrotation Xrotation Yrotation
                    JOINT LeftElbow
                    {
                        OFFSET  26.662100   0.001193   0.000980
                        CHANNELS 3 Zrotation Xrotation Yrotation
                        JOINT LeftWrist
                        {
                            OFFSET  28.869000  -0.000059  -0.000082
                            CHANNELS 3 Zrotation Xrotation Yrotation
                            JOINT LeftFinger0
                            {
                                OFFSET   2.044650  -2.323450   3.252850
                                CHANNELS 3 Zrotation Xrotation Yrotation
                                JOINT LeftFinger01
                                {
                                    OFFSET   3.088130   0.000000   0.000000
                                    CHANNELS 3 Zrotation Xrotation Yrotation
                                    JOINT LeftFinger02
                                    {
                                        OFFSET   2.639460   0.000000   0.000000
                                        CHANNELS 3 Zrotation Xrotation Yrotation
                                        End Site
                                        {
                                            OFFSET   2.582190   0.000000   0.000000
                                        }
                                    }
                                }
                            }
                            JOINT LeftFinger1
                            {
                                OFFSET   8.364480   0.000000   3.252850
                                CHANNELS 3 Zrotation Xrotation Yrotation
                                JOINT LeftFinger11
                                {
                                    OFFSET   4.646930   0.000000   0.000000
                                    CHANNELS 3 Zrotation Xrotation Yrotation
                                    JOINT LeftFinger12
                                    {
                                        OFFSET   2.323470   0.000000   0.000000
                                        CHANNELS 3 Zrotation Xrotation Yrotation
                                        End Site
                                        {
                                            OFFSET   2.273050   0.000000   0.000000
                                        }
                                    }
                                }
                            }
                            JOINT LeftFinger2
                            {
                                OFFSET   8.364490   0.000016   1.078090
                                CHANNELS 3 Zrotation Xrotation Yrotation
                                JOINT LeftFinger21
                                {
                                    OFFSET   5.111610   0.000000   0.000000
                                    CHANNELS 3 Zrotation Xrotation Yrotation
                                    JOINT LeftFinger22
                                    {
                                        OFFSET   2.788150   0.000016   0.000000
                                        CHANNELS 3 Zrotation Xrotation Yrotation
                                        End Site
                                        {
                                            OFFSET   2.727660   0.000000   0.000000
                                        }
                                    }
                                }
                            }
                            JOINT LeftFinger3
                            {
                                OFFSET   7.899780   0.000015  -1.078090
                                CHANNELS 3 Zrotation Xrotation Yrotation
                                JOINT LeftFinger31
                                {
                                    OFFSET   4.646930   0.000000   0.000000
                                    CHANNELS 3 Zrotation Xrotation Yrotation
                                    JOINT LeftFinger32
                                    {
                                        OFFSET   2.323470   0.000000   0.000000
                                        CHANNELS 3 Zrotation Xrotation Yrotation
                                        End Site
                                        {
                                            OFFSET   2.273050   0.000000   0.000000
                                        }
                                    }
                                }
                            }
                            JOINT LeftFinger4
                            {
                                OFFSET   7.435090   0.000000  -3.252850
                                CHANNELS 3 Zrotation Xrotation Yrotation
                                JOINT LeftFinger41
                                {
                                    OFFSET   3.717550   0.000000   0.000000
                                    CHANNELS 3 Zrotation Xrotation Yrotation
                                    JOINT LeftFinger42
                                    {
                                        OFFSET   1.858770   0.000000   0.000000
                                        CHANNELS 3 Zrotation Xrotation Yrotation
                                        End Site
                                        {
                                            OFFSET   1.818440   0.000000   0.000000
                                        }
                                    }
                                }
                            }
                        }
                    }
                }
            }
            JOINT RightCollar
            {
                OFFSET  -3.911910  19.017000  -0.467062
                CHANNELS 3 Zrotation Xrotation Yrotation
                JOINT RightShoulder
                {
                    OFFSET -10.383700   0.000014   0.000000
                    CHANNELS 3 Zrotation Xrotation Yrotation
                    JOINT RightElbow
                    {
                        OFFSET -26.662100   0.001225   0.001091
                        CHANNELS 3 Zrotation Xrotation Yrotation
                        JOINT RightWrist
                        {
                            OFFSET -28.869000  -0.000020  -0.000085
                            CHANNELS 3 Zrotation Xrotation Yrotation
                            JOINT RightFinger0
                            {
                                OFFSET  -2.044650  -2.323490   3.252850
                                CHANNELS 3 Zrotation Xrotation Yrotation
                                JOINT RightFinger01
                                {
                                    OFFSET  -3.088130   0.000000   0.000000
                                    CHANNELS 3 Zrotation Xrotation Yrotation
                                    JOINT RightFinger02
                                    {
                                        OFFSET  -2.639460   0.000000   0.000000
                                        CHANNELS 3 Zrotation Xrotation Yrotation
                                        End Site
                                        {
                                            OFFSET  -2.582190   0.000000   0.000000
                                        }
                                    }
                                }
                            }
                            JOINT RightFinger1
                            {
                                OFFSET  -8.364480   0.000000   3.252850
                                CHANNELS 3 Zrotation Xrotation Yrotation
                                JOINT RightFinger11
                                {
                                    OFFSET  -4.646930   0.000000   0.000000
                                    CHANNELS 3 Zrotation Xrotation Yrotation
                                    JOINT RightFinger12
                                    {
                                        OFFSET  -2.323470   0.000000   0.000000
                                        CHANNELS 3 Zrotation Xrotation Yrotation
                                        End Site
                                        {
                                            OFFSET  -2.273050   0.000000   0.000000
                                        }
                                    }
                                }
                            }
                            JOINT RightFinger2
                            {
                                OFFSET  -8.364480   0.000000   1.078090
                                CHANNELS 3 Zrotation Xrotation Yrotation
                                JOINT RightFinger21
                                {
                                    OFFSET  -5.111620   0.000000   0.000000
                                    CHANNELS 3 Zrotation Xrotation Yrotation
                                    JOINT RightFinger22
                                    {
                                        OFFSET  -2.788160   0.000000   0.000000
                                        CHANNELS 3 Zrotation Xrotation Yrotation
                                        End Site
                                        {
                                            OFFSET  -2.727660   0.000000   0.000000
                                        }
                                    }
                                }
                            }
                            JOINT RightFinger3
                            {
                                OFFSET  -7.899780   0.000000  -1.078090
                                CHANNELS 3 Zrotation Xrotation Yrotation
                                JOINT RightFinger31
                                {
                                    OFFSET  -4.646930   0.000000   0.000000
                                    CHANNELS 3 Zrotation Xrotation Yrotation
                                    JOINT RightFinger32
                                    {
                                        OFFSET  -2.323470   0.000000   0.000000
                                        CHANNELS 3 Zrotation Xrotation Yrotation
                                        End Site
                                        {
                                            OFFSET  -2.273050   0.000000   0.000000
                                        }
                                    }
                                }
                            }
                            JOINT RightFinger4
                            {
                                OFFSET  -7.435090   0.000000  -3.252850
                                CHANNELS 3 Zrotation Xrotation Yrotation
                                JOINT RightFinger41
                                {
                                    OFFSET  -3.717550   0.000000   0.000000
                                    CHANNELS 3 Zrotation Xrotation Yrotation
                                    JOINT RightFinger42
                                    {
                                        OFFSET  -1.858760   0.000000   0.000000
                                        CHANNELS 3 Zrotation Xrotation Yrotation
                                        End Site
                                        {
                                            OFFSET  -1.818440   0.000000   0.000000
                                        }
                                    }
                                }
                            }
                        }
                    }
                }
            }
        }
    }
    JOINT LeftHip
    {
        OFFSET   9.783030   0.000000   0.000000
        CHANNELS 3 Zrotation Xrotation Yrotation
        JOINT LeftKnee
        {
            OFFSET   0.000063 -41.789100   0.000608
            CHANNELS 3 Zrotation Xrotation Yrotation
            JOINT LeftAnkle
            {
                OFFSET   0.000048 -41.133200  -0.000184
                CHANNELS 3 Zrotation Xrotation Yrotation
                JOINT LeftToe
                {
                    OFFSET   0.000000  -6.358960  14.674500
                    CHANNELS 3 Zrotation Xrotation Yrotation
                    End Site
                    {
                        OFFSET   0.000000   0.000000   3.913200
                    }
                }
            }
        }
    }
    JOINT RightHip
    {
        OFFSET  -9.783030   0.000000   0.000000
        CHANNELS 3 Zrotation Xrotation Yrotation
        JOINT RightKnee
        {
            OFFSET   0.000071 -41.789100   0.001239
            CHANNELS 3 Zrotation Xrotation Yrotation
            JOINT RightAnkle
            {
                OFFSET   0.000037 -41.133200  -0.000166
                CHANNELS 3 Zrotation Xrotation Yrotation
                JOINT RightToe
                {
                    OFFSET   0.000000  -6.358960  14.674500
                    CHANNELS 3 Zrotation Xrotation Yrotation
                    End Site
                    {
                        OFFSET   0.000000   0.000000   3.913200
                    }
                }
            }
        }
    }
}
MOTION
Frames: 4
Frame Time:   0.016667
  0.434841  89.882900   1.378400  -4.908980 -16.860600 -11.376700  -0.592732  11.576100  -1.602380  -0.873983  23.164300  -3.182020  -0.363087   4.548930   0.029441  -0.604421   9.222990  14.660200  -6.391480  -5.646900   6.413600 -57.218700  41.254100 -34.251100   3.785250 -18.698700 -68.598300  44.633900 -73.471800  54.656600  38.869500  29.778900 -71.313700 -15.122100   0.006900   0.001908  -2.561020   0.003505  -0.006006 -21.644000   4.477280 -11.129300 -18.066900   0.006573  -0.004065 -12.646800   0.004084  -0.003563 -26.770500  -4.330940   8.520900 -27.377900   0.003075  -0.000818 -18.233700   0.001493   0.000042 -21.166300  -3.995170  10.198100 -21.522700   0.000631  -0.000988 -14.334100   0.000000   0.002364 -22.279300  -6.273560  14.929100 -34.652800   0.000913  -0.001024 -23.078800   0.000386   0.002800   8.445140  -4.040680  12.408800  61.235700   5.078860  41.163300  -9.848080 -25.569300  65.609500 -75.412000 -36.321600 -21.946900 -35.212400  34.763200  75.331000  38.887800  -0.016001   0.002122  14.444000  -0.007526   0.002196  39.014000  -3.124180  -3.860860  32.004600   0.001620  -0.012859  22.385200  -0.002042  -0.006453  29.493200  -3.741700  -6.584710  44.563000  -0.002577  -0.023921  29.678900  -0.008949  -0.013166  34.959000  -5.216660  -7.462090  53.454400   0.002681   0.001612  35.482900  -0.004606  -0.004186  56.486000  -9.642490  -6.337420  85.528100  -0.009898  -0.007287  56.961700  -0.005271   0.004433   1.430790  17.101300   4.954500  -0.061379   4.073510  15.451100  -4.064940  -5.799690   7.349900  -0.000000   0.000000  -0.000000   4.499200  13.024000  -7.725160  -2.550500   8.401500  -4.233130  -8.841750  -2.965730  12.425100   0.000000   0.000000   0.000000
  0.440384  89.883000   1.412360  -4.991270 -16.872000 -11.619700  -0.570128  11.626100  -1.622190  -0.821924  23.263700  -3.226570  -0.404717   4.592280   0.032376  -0.677066   9.310620  14.761600  -6.416440  -5.681270   6.453530 -57.308300  41.151700 -34.140800   3.747440 -18.634300 -68.606700  44.617300 -73.496900  54.649500  38.778600  29.610400 -71.168000 -15.188600   0.006837   0.001978  -2.594300   0.003504  -0.006056 -21.654600   4.453700 -11.066800 -18.070600   0.006583  -0.004064 -12.649400   0.004082  -0.003568 -26.756900  -4.330920   8.528000 -27.322800   0.003038  -0.000799 -18.197000   0.001488   0.000000 -21.142000  -4.011450  10.253700 -21.502000   0.000607  -0.000952 -14.320300   0.000000   0.002370 -22.241500  -6.288110  14.993600 -34.604700   0.000890  -0.001007 -23.046800   0.000371   0.002800   8.668150  -4.017740  12.515100  61.954500   5.395550  39.911600  -9.029430 -25.772300  64.853800 -79.448900 -39.277500 -28.908600 -35.616900  35.349300  75.892200  38.825600  -0.030869   0.005415  14.412800  -0.014331   0.004991  39.418100  -2.875570  -3.468550  32.313800   0.001601  -0.016169  22.645400  -0.002086  -0.007087  29.707900  -3.729150  -6.543730  44.877500  -0.003575  -0.039833  29.888400  -0.014230  -0.022427  34.951300  -5.213350  -7.469950  53.366500  -0.004814  -0.011379  35.460700  -0.014237  -0.010843  56.449100  -9.659110  -6.360190  85.475300  -0.027463  -0.008155  56.926500  -0.014419   0.012516   1.429870  17.144500   5.005150  -0.089682   4.141790  15.536900  -4.042800  -5.887910   7.442250   0.000000   0.000000   0.000000   4.500140  13.015600  -7.759350  -2.585450   8.484230  -4.045260  -8.814220  -3.011080  12.498800  -0.000000   0.000000   0.000000
  0.440036  89.880100   1.444080  -5.078770 -16.886000 -11.861700  -0.546422  11.678100  -1.642590  -0.766966  23.367000  -3.274340  -0.448330   4.638060   0.036157  -0.750282   9.403340  14.861900  -6.438650  -5.716020   6.465730 -57.425900  41.023300 -34.011300   3.681210 -18.565600 -68.608900  44.738600 -73.565200  54.800400  38.737600  29.498300 -71.057400 -15.217500   0.006784   0.001970  -2.608750   0.003494  -0.006093 -21.638400   4.403210 -10.949200 -18.047800   0.006596  -0.004063 -12.633400   0.004087  -0.003568 -26.736100  -4.330880   8.538900 -27.238700   0.003002  -0.000786 -18.140900   0.001483  -0.000046 -21.102200  -4.017890  10.295300 -21.464200   0.000584  -0.000924 -14.295200   0.000000   0.002369 -22.159600  -6.305000  15.101300 -34.494800   0.000866  -0.000995 -22.973600   0.000354   0.002797   8.890830  -4.000300  12.631100  62.669300   5.656390  38.794900  -8.549460 -25.745200  63.801500 -83.366000 -41.205200 -35.596800 -36.780800  36.949700  77.693800  38.074900  -0.028527   0.003097  14.037400  -0.013517   0.004990  40.099300  -2.033990  -2.387400  32.831500   0.001566  -0.013973  23.086500  -0.002169  -0.006597  30.334100  -3.717820  -6.374700  45.806800  -0.003696  -0.037761  30.507400  -0.010881  -0.022085  35.590200  -5.250070  -7.359240  53.721200  -0.004844  -0.007468  35.814600  -0.011589  -0.011210  56.771700  -9.459470  -6.158380  85.917400  -0.025764  -0.008343  57.221000  -0.012979   0.009972   1.438920  17.186800   5.064180  -0.120080   4.216430  15.619900  -4.021290  -5.976340   7.524640  -0.000000   0.000000   0.000000   4.508840  13.008400  -7.785070  -2.617810   8.571430  -3.878710  -8.792850  -3.057630  12.583800  -0.000000   0.000000   0.000000
  0.439231  89.873800   1.474610  -5.169710 -16.901200 -12.102300  -0.522697  11.731500  -1.660340  -0.712421  23.473200  -3.316720  -0.489513   4.680090   0.039927  -0.819492   9.488370  14.954100  -6.462460  -5.759070   6.467900 -57.545900  40.899400 -33.880900   3.601490 -18.496000 -68.601900  44.938500 -73.646200  55.034200  38.723000  29.442200 -70.998000 -15.227300   0.006729   0.001942  -2.613650   0.003485  -0.006127 -21.599000   4.359040 -10.867500 -18.011300   0.006610  -0.004061 -12.607900   0.004091  -0.003567 -26.713900  -4.330830   8.550470 -27.149600   0.002966  -0.000774 -18.081600   0.001477  -0.000092 -21.059700  -4.019790  10.317500 -21.422700   0.000560  -0.000895 -14.267500   0.000000   0.002367 -22.076900  -6.315580  15.174600 -34.378400   0.000843  -0.000983 -22.896000   0.000338   0.002792   9.116570  -3.990150  12.752200  63.406800   5.835640  37.725500  -8.243550 -25.462300  62.681700 -86.823400 -42.223700 -41.487000 -38.103600  38.536600  79.811700  37.060500  -0.022023  -0.000119  13.530300  -0.010760   0.004979  40.836500  -1.087400  -1.254450  33.419000   0.001519  -0.010242  23.596800  -0.002243  -0.005790  31.103900  -3.706240  -6.148170  46.952900  -0.003733  -0.031520  31.270700  -0.005754  -0.019689  36.801000  -5.330690  -7.154820  54.183900  -0.004853  -0.003201  36.391100  -0.007334  -0.011327  57.329000  -9.135620  -5.826010  86.689100  -0.021395  -0.008369  57.735000  -0.010538   0.005974   1.451680  17.234000   5.123460  -0.148637   4.286100  15.709100  -3.999790  -6.061770   7.598560  -0.000000   0.000000   0.000000   4.526880  13.000600  -7.806570  -2.652500   8.662390  -3.720480  -8.775740  -3.104580  12.668800   0.000000   0.000000   0.000000
